<?xml version="1.0" standalone="no"?><!DOCTYPE svg PUBLIC "-//W3C//DTD SVG 1.1//EN" "http://www.w3.org/Graphics/SVG/1.1/DTD/svg11.dtd"><svg t="1585562488480" class="icon" viewBox="0 0 1024 1024" version="1.1" xmlns="http://www.w3.org/2000/svg" p-id="1273" xmlns:xlink="http://www.w3.org/1999/xlink" width="200" height="200"><defs><style type="text/css"></style></defs><path d="M768 341.333333h-341.333333V256h341.333333v85.333333z m0 128h-341.333333V384h341.333333v85.333333z m-128 128h-213.333333v-85.333333h213.333333v85.333333zM341.333333 341.333333H256V256h85.333333v85.333333z m0 128H256V384h85.333333v85.333333z m0 128H256v-85.333333h85.333333v85.333333zM853.333333 85.333333H170.666667c-46.933333 0-85.333333 38.4-85.333334 85.333334v768l170.666667-170.666667h597.333333c46.933333 0 85.333333-38.4 85.333334-85.333333V170.666667c0-46.933333-38.4-85.333333-85.333334-85.333334z" p-id="1274"></path></svg>