<?xml version="1.0" standalone="no"?><!DOCTYPE svg PUBLIC "-//W3C//DTD SVG 1.1//EN" "http://www.w3.org/Graphics/SVG/1.1/DTD/svg11.dtd"><svg t="1585562526177" class="icon" viewBox="0 0 1024 1024" version="1.1" xmlns="http://www.w3.org/2000/svg" p-id="1511" xmlns:xlink="http://www.w3.org/1999/xlink" width="200" height="200"><defs><style type="text/css"></style></defs><path d="M1022 855.7c3.6 21.7-1 41.2-13.6 58.5s-29.8 27.8-51.5 31.4l-130 20.6c-20.9 3.6-40.3-0.9-58-13.5-17.6-12.7-28.3-29.8-31.9-51.5l-110.5-700c-1.5-10.8-1-21.1 1.6-30.9 2.6-9.7 6.7-18.8 12.5-27.1s13.2-15.2 22.2-20.6c9-5.4 18.9-9.2 29.8-11.4l129-20.5c21.6-3.6 41.2 1.1 58.5 14.1 17.4 13 27.8 30.4 31.5 52L1022 855.7zM532 86.4c21.7 0 40.1 7.6 55.3 22.8 15.2 15.1 22.7 33.6 22.7 55.3v723.8c0 21.7-7.6 40.1-22.7 55.3-15.2 15.2-33.6 22.8-55.3 22.8H419.3c-21.6 0-40.1-7.6-55.2-22.8-15.2-15.1-22.7-33.6-22.7-55.3V164.5c0-21.7 5.8-40.1 17.3-55.3 11.6-15.2 28.5-22.8 51-22.8H532z m0 546.1c7.2 0 13.4-3.4 18.4-10.3 5-6.9 7.6-15 7.6-24.4 0-10.1-2.6-18.4-7.6-24.9-5.1-6.5-11.2-9.7-18.4-9.7H419.3c-7.2 0-13.3 3.3-18.4 9.7-5.1 6.5-7.6 14.8-7.6 24.9 0 9.4 2.5 17.5 7.6 24.4 5.1 6.9 11.2 10.3 18.4 10.3H532z m0-137.6c7.2 0 13.4-3.4 18.4-10.3 5-6.9 7.6-15.4 7.6-25.5s-2.6-18.4-7.6-24.9c-5.1-6.5-11.2-9.7-18.4-9.7H419.3c-7.2 0-13.3 3.3-18.4 9.7-5.1 6.5-7.6 14.8-7.6 24.9 0 10.1 2.5 18.6 7.6 25.5s11.2 10.3 18.4 10.3H532zM191.8 86.4c21.7 0 40.3 7.6 55.8 22.8 15.5 15.1 23.3 33.6 23.3 55.3v723.8c0 21.7-7.7 40.1-23.3 55.3-15.5 15.2-34.1 22.8-55.8 22.8H79c-21.7 0-40.2-7.6-55.8-22.8C7.7 928.3 0 909.9 0 888.2V164.4c0-21.7 7.7-40.1 23.3-55.3C38.8 94 57.4 86.4 79 86.4h112.8zM83.4 357.3c-8 0-14.4 3.3-19.5 9.8-5.1 6.5-7.6 14.8-7.6 24.9 0 9.4 2.6 17.5 7.6 24.4 5.1 6.9 11.5 10.3 19.5 10.3h104c8 0 14.3-3.5 19-10.3 4.6-6.9 7-15 7-24.4 0-10.1-2.4-18.4-7-24.9-4.7-6.5-11.1-9.8-19-9.8h-104z m108.4 340.2c8 0 14.3-3.3 19-9.7 4.7-6.5 7-14.5 7-23.8 0-10.1-2.3-18.2-7-24.4-4.7-6.2-11-9.2-19-9.2H83.4c-8 0-14.4 3.1-19.5 9.2-5.1 6.2-7.6 14.3-7.6 24.4 0 9.4 2.6 17.3 7.6 23.8 5.1 6.5 11.5 9.7 19.5 9.7h108.4z m0-133.3c8 0 14.3-3.3 19-9.8 4.7-6.5 7-14.8 7-24.9 0-10.1-2.3-18.4-7-24.9s-11-9.8-19-9.8H83.4c-8 0-14.4 3.3-19.5 9.8-5.1 6.5-7.6 14.8-7.6 24.9 0 10.1 2.6 18.4 7.6 24.9 5.1 6.5 11.5 9.8 19.5 9.8h108.4z" fill="" p-id="1512"></path></svg>