<?xml version="1.0" standalone="no"?><!DOCTYPE svg PUBLIC "-//W3C//DTD SVG 1.1//EN" "http://www.w3.org/Graphics/SVG/1.1/DTD/svg11.dtd"><svg t="1581924555909" class="icon" viewBox="0 0 1024 1024" version="1.1" xmlns="http://www.w3.org/2000/svg" p-id="1183" xmlns:xlink="http://www.w3.org/1999/xlink" width="200" height="200"><defs><style type="text/css"></style></defs><path d="M117.13 0h104.25C238.54 0 255.7 7.02 268 18.75l93.24 90.73c12.24 12.29 28.79 18.75 46.57 18.75h208.5c17.11 0 34.32-7.02 46.57-18.75l93.24-90.73C768.35 6.45 784.89 0 802.67 0h104.25c36.17 0 65.57 28.69 65.57 63.83v896.34c0 35.14-29.4 63.83-65.57 63.83H117.13c-36.17 0-65.62-28.69-65.62-63.83V63.83C51.56 28.69 81.02 0 117.13 0z m278.99 0h229.35c20.85 0 38.63 15.83 39.24 35.71 0.61 20.49-16.55 37.5-38.01 37.5H397.35c-20.85 0-38.63-15.83-39.24-35.76C357.5 16.96 374.71 0 396.12 0z m421.87 324.94c0-32.79-28.18-59.73-62.5-59.73H267.33c-34.32 0-62.5 26.95-62.5 59.73 0 32.79 28.18 59.73 62.5 59.73h488.72c33.66-0.61 61.88-26.95 61.88-59.73h0.06z m0 255.83c0-32.79-28.18-59.73-62.5-59.73H267.33c-34.32 0-62.5 26.95-62.5 59.73s28.18 59.73 62.5 59.73h488.72c33.66 0 61.88-26.95 61.88-59.73h0.06z m0 256.45c0-32.79-28.18-59.73-62.5-59.73H267.33c-34.32 0-62.5 26.95-62.5 59.73s28.18 59.73 62.5 59.73h488.72c33.66-0.61 61.88-26.95 61.88-59.73h0.06z" p-id="1184"></path></svg>