<?xml version="1.0" standalone="no"?><!DOCTYPE svg PUBLIC "-//W3C//DTD SVG 1.1//EN" "http://www.w3.org/Graphics/SVG/1.1/DTD/svg11.dtd"><svg t="1585562515893" class="icon" viewBox="0 0 1024 1024" version="1.1" xmlns="http://www.w3.org/2000/svg" p-id="1392" xmlns:xlink="http://www.w3.org/1999/xlink" width="200" height="200"><defs><style type="text/css"></style></defs><path d="M514.076444 129.28c-156.700444 0-283.676444 124.586667-283.676444 278.328889s126.976 278.357333 283.676444 278.357333c156.672 0 283.648-124.615111 283.648-278.357333 0-153.742222-126.976-278.328889-283.648-278.328889zM186.538667 514.474667V257.479111c-3.612444 0-7.168 0.142222-10.695111 0.426667 58.140444-126.464 187.591111-214.556444 338.261333-214.556445s280.120889 88.092444 338.232889 214.556445a132.977778 132.977778 0 0 0-10.666667-0.426667v256.995556c72.362667 0 131.043556-57.543111 131.043556-128.512 0-48.184889-27.050667-90.168889-67.100445-112.156445C849.294222 114.773333 695.495111 0.568889 514.104889 0.568889S178.915556 114.773333 122.595556 273.806222c-40.049778 21.987556-67.128889 64-67.128889 112.156445 0 70.968889 58.652444 128.512 131.043555 128.512z m610.588444 147.285333a417.763556 417.763556 0 0 1-283.050667 109.454222 417.848889 417.848889 0 0 1-282.652444-109.056C98.844444 729.088 11.804444 848.213333 11.804444 1010.062222H1019.733333c0-162.133333-88.661333-281.457778-222.634666-348.330666z" p-id="1393"></path></svg>