<?xml version="1.0" standalone="no"?><!DOCTYPE svg PUBLIC "-//W3C//DTD SVG 1.1//EN" "http://www.w3.org/Graphics/SVG/1.1/DTD/svg11.dtd"><svg t="1581924568020" class="icon" viewBox="0 0 1024 1024" version="1.1" xmlns="http://www.w3.org/2000/svg" p-id="1302" xmlns:xlink="http://www.w3.org/1999/xlink" width="200" height="200"><defs><style type="text/css"></style></defs><path d="M1006.511295 724.389823H586.129425c-9.336465 0-17.52846-11.083288-17.528461-25.178338v-59.030553c0-13.97458 7.529407-25.178338 17.528461-25.178338h420.38187c9.999053 0 17.52846 11.083288 17.52846 25.178338v59.090788c0 13.552933-7.529407 25.178338-17.52846 25.178339z m0 0" p-id="1303"></path><path d="M1006.511295 874.315382H586.129425c-9.336465 0-17.52846-11.083288-17.528461-25.178338v-59.030553c0-13.97458 7.529407-25.178338 17.528461-25.178339h420.38187c9.999053 0 17.52846 11.083288 17.52846 25.178339v59.030553c0 14.095051-7.529407 25.178338-17.52846 25.178338z m0 0" p-id="1304"></path><path d="M1006.511295 1024H586.129425c-9.336465 0-17.52846-11.083288-17.528461-25.178338v-59.030554c0-13.97458 7.529407-25.178338 17.528461-25.178338h420.38187c9.999053 0 17.52846 11.083288 17.52846 25.178338v59.030554c0 14.095051-7.529407 25.178338-17.52846 25.178338z m0 0" p-id="1305"></path><path d="M555.710619 548.743809h74.812191a125.409809 125.409809 0 0 0 5.180233-36.863978 139.7458 139.7458 0 0 0-139.685565-139.685565 122.21734 122.21734 0 0 0-15.781638 1.204705 139.685565 139.685565 0 0 0 0.662588 277.624307 152.515675 152.515675 0 0 0 15.781638 1.204705v-43.309151a58.729377 58.729377 0 0 1 59.030553-60.235258z m0 0" p-id="1306"></path><path d="M282.061839 512.000301a213.955639 213.955639 0 1 1 427.670337 0.662588 251.903852 251.903852 0 0 1-2.891293 35.659273h197.089767a359.604494 359.604494 0 0 0-1.807058-86.618302l59.813612-46.079973a63.247022 63.247022 0 0 0 20.419752-84.329362l-87.100184-151.732617a62.704904 62.704904 0 0 0-83.004186-24.51575l-70.113841 29.214101a407.491525 407.491525 0 0 0-86.01595-49.754324L645.581625 59.633508A62.644669 62.644669 0 0 0 583.117662 0.000602h-174.68225a62.584434 62.584434 0 0 0-62.704905 59.632906l-10.54117 74.812192a452.848675 452.848675 0 0 0-86.015949 49.754323l-70.113842-28.611747a62.704904 62.704904 0 0 0-83.004186 24.51575L8.352823 331.836642A62.403728 62.403728 0 0 0 28.772576 415.623887l59.572671 46.200444a403.154586 403.154586 0 0 0 0 99.508647l-59.572671 46.200443a63.307257 63.307257 0 0 0-20.419753 84.329363L95.453007 843.294224a59.512436 59.512436 0 0 0 37.948213 29.2141 63.427727 63.427727 0 0 0 45.055974-4.638115l70.294547-28.792453a414.117403 414.117403 0 0 0 86.015949 49.754324L345.128155 963.764741a62.463963 62.463963 0 0 0 62.584433 59.632906h87.16042v-297.803119A213.112345 213.112345 0 0 1 282.061839 512.000301z m0 0" p-id="1307"></path></svg>