<?xml version="1.0" standalone="no"?><!DOCTYPE svg PUBLIC "-//W3C//DTD SVG 1.1//EN" "http://www.w3.org/Graphics/SVG/1.1/DTD/svg11.dtd"><svg t="1543289096263" class="icon" style="" viewBox="0 0 1024 1024" version="1.1" xmlns="http://www.w3.org/2000/svg" p-id="3313" xmlns:xlink="http://www.w3.org/1999/xlink" width="128" height="128"><defs><style type="text/css"></style></defs><path d="M512 0a512 512 0 1 0 512 512A512 512 0 0 0 512 0z m0 977.454545a465.454545 465.454545 0 1 1 465.454545-465.454545 465.454545 465.454545 0 0 1-465.454545 465.454545z m0-769.861818a162.909091 162.909091 0 0 0-93.090909 298.356364 276.945455 276.945455 0 0 0-182.690909 259.723636 23.272727 23.272727 0 0 0 46.545454 0A230.4 230.4 0 0 1 512 535.272727a164.072727 164.072727 0 1 0 0-328.145454zM512 488.727273a117.527273 117.527273 0 1 1 117.527273-116.363637A117.76 117.76 0 0 1 512 488.727273z m188.509091 74.24a277.643636 277.643636 0 0 1 88.203636 202.472727 23.272727 23.272727 0 0 1-46.545454 0 230.865455 230.865455 0 0 0-73.309091-168.261818 23.272727 23.272727 0 1 1 31.650909-33.978182z" p-id="3314" fill="#cdcdcd"></path></svg>