<?xml version="1.0" standalone="no"?><!DOCTYPE svg PUBLIC "-//W3C//DTD SVG 1.1//EN" "http://www.w3.org/Graphics/SVG/1.1/DTD/svg11.dtd"><svg t="1543562351513" class="icon" style="" viewBox="0 0 1024 1024" version="1.1" xmlns="http://www.w3.org/2000/svg" p-id="13889" xmlns:xlink="http://www.w3.org/1999/xlink" width="200" height="200"><defs><style type="text/css"></style></defs><path d="M744.788346 969.102692c-139.500171 0-252.570389-113.073288-252.570389-252.544807 0-139.53701 113.070218-252.577552 252.570389-252.577552 139.437749 0 252.512061 113.039519 252.512061 252.577552C997.300406 856.029404 884.226095 969.102692 744.788346 969.102692M744.788346 523.369955c-106.703207 0-193.151092 86.544075-193.151092 193.187931s86.447884 193.054901 193.151092 193.054901c106.643855 0 193.08867-86.411045 193.08867-193.054901S851.432201 523.369955 744.788346 523.369955M873.33607 660.560524l-150.21521 179.682335c-5.278213 6.303566-14.641465 7.163143-20.895913 1.924839l-22.779819-19.071358-91.127464-76.290547c-6.303566-5.278213-7.160073-14.688537-1.88186-20.992103l19.072381-22.782889c5.237281-6.257517 14.649652-7.064906 20.954241-1.786693l79.688947 66.712401 121.626082-145.533584c5.282307-6.311753 14.693654-7.117095 20.999266-1.840928l22.776749 19.073404C877.810988 644.886543 878.617353 654.256958 873.33607 660.560524M848.746022 107.486036c0-16.446577-13.296841-29.741371-29.710672-29.741371L135.685797 77.744665c-16.396435 0-29.711695 13.294794-29.711695 29.741371l0 772.414031c0 16.452717 13.31526 29.713742 29.711695 29.713742l297.108768 0 0 59.489906L105.975125 969.103716c-32.796964 0-59.422368-26.662243-59.422368-59.489906L46.552757 77.744665c0-32.82664 26.625404-59.389622 59.422368-59.389622l742.770897 0c32.793894 0 59.419298 26.562982 59.419298 59.389622l0 267.390933-59.419298 0L848.746022 107.486036zM269.402241 671.928433l118.841665 0c8.18952 0 14.839986 6.699586 14.839986 14.921851l0 29.707602c0 8.156774-6.650467 14.787798-14.839986 14.787798L269.402241 731.345684c-8.223289 0-14.873756-6.631024-14.873756-14.787798l0-29.707602C254.527462 678.628018 261.177929 671.928433 269.402241 671.928433M254.527462 300.607452 254.527462 270.892687c0-8.223289 6.650467-14.887059 14.873756-14.887059l445.679525 0c8.15575 0 14.818497 6.66377 14.818497 14.887059l0 29.714765c0 8.156774-6.66377 14.820544-14.818497 14.820544L269.402241 315.427996C261.177929 315.427996 254.527462 308.764226 254.527462 300.607452M254.527462 508.583181 254.527462 478.869439c0-8.217149 6.650467-14.888082 14.873756-14.888082l207.975728 0c8.18952 0 14.839986 6.670933 14.839986 14.888082l0 29.714765c0 8.156774-6.650467 14.786775-14.839986 14.786775L269.402241 523.370978C261.177929 523.369955 254.527462 516.739954 254.527462 508.583181" p-id="13890" fill="#4f4f4f"></path></svg>