<?xml version="1.0" standalone="no"?><!DOCTYPE svg PUBLIC "-//W3C//DTD SVG 1.1//EN" "http://www.w3.org/Graphics/SVG/1.1/DTD/svg11.dtd"><svg t="1543051973926" class="icon" style="" viewBox="0 0 1254 1024" version="1.1" xmlns="http://www.w3.org/2000/svg" p-id="2326" xmlns:xlink="http://www.w3.org/1999/xlink" width="244.921875" height="200"><defs><style type="text/css"></style></defs><path d="M327.82499 699.35535H27.775894a27.859222 27.859222 0 0 0-27.775894 27.775894v269.078974a27.859222 27.859222 0 0 0 27.775894 27.775894h299.979656a27.859222 27.859222 0 0 0 27.775895-27.775894V727.131244a27.859222 27.859222 0 0 0-27.706455-27.775894z m-27.775894 269.078974h-244.427868V754.907138h244.427868zM777.752811 699.35535h-299.979657a27.859222 27.859222 0 0 0-27.775894 27.775894v269.078974a27.859222 27.859222 0 0 0 27.775894 27.775894h299.979657a27.859222 27.859222 0 0 0 27.775894-27.775894V727.131244a27.859222 27.859222 0 0 0-27.775894-27.775894z m-27.775894 269.078974h-244.427868V754.907138h244.427868zM1226.305725 699.35535H926.326068a27.859222 27.859222 0 0 0-27.775894 27.775894v269.078974a27.859222 27.859222 0 0 0 27.775894 27.775894h299.979657a27.859222 27.859222 0 0 0 27.775894-27.775894V727.131244a27.859222 27.859222 0 0 0-27.775894-27.775894z m-27.775894 269.078974H954.101962V754.907138h244.427869zM154.975601 699.35535h55.551788V546.824027H599.959313v152.531323h55.551788V546.824027h387.69593v152.531323h55.551788V491.272239H655.511101v-166.655365h132.0466a27.859222 27.859222 0 0 0 27.775895-27.775894V27.775894a27.859222 27.859222 0 0 0-27.775895-27.775894H467.912712a27.859222 27.859222 0 0 0-27.775894 27.775894v269.078974a27.859222 27.859222 0 0 0 27.775894 27.775894H599.959313v166.655365H154.975601v55.551788z m340.713005-430.276376V55.551788h264.093201v213.527186z" fill="#bfbfbf" p-id="2327"></path></svg>