<?xml version="1.0" standalone="no"?><!DOCTYPE svg PUBLIC "-//W3C//DTD SVG 1.1//EN" "http://www.w3.org/Graphics/SVG/1.1/DTD/svg11.dtd"><svg t="1543482356632" class="icon" style="" viewBox="0 0 1024 1024" version="1.1" xmlns="http://www.w3.org/2000/svg" p-id="5842" xmlns:xlink="http://www.w3.org/1999/xlink" width="200" height="200"><defs><style type="text/css"></style></defs><path d="M410.727261 783.674863v-17.183934H78.996106c-7.32348 0-13.747147-5.848786-13.747147-12.497407v-676.109685c0-6.686112 6.36118-12.497406 13.747147-12.497407H787.836499c7.298485 0 13.747147 5.861284 13.747147 12.497407v341.554116c21.820472 11.897531 31.70592 34.767785 31.70592 61.237292v13.309737l15.609261 7.498444 9.410547-9.410547a61.824669 61.824669 0 0 1 8.548226-6.811086V85.519752C866.8576 38.492012 830.415162 0 782.775049 0H86.707006C39.004405 0 0.012497 38.492012 0.012497 85.519752v660.687886c0 47.065232 39.004405 85.544747 86.694509 85.544747h352.214404c-17.046462-12.797344-28.181651-25.207269-28.181652-48.09002zM116.613299 317.634081l319.321231 195.53442 319.333728-195.53442v-78.15878L435.93453 434.984727 116.613299 239.475301z m885.516227 380.296076h-26.107082c-11.960018 0-24.632388-9.310568-28.156656-20.770689l-14.996888-36.37995c-5.661325-10.522816-3.32431-26.044595 5.086444-34.517837l18.521157-18.433674a21.857964 21.857964 0 0 0 0-30.781112l-30.74362-30.706127a21.920451 21.920451 0 0 0-30.781112 0l-18.521156 18.496161c-8.410755 8.448247-23.932533 10.747769-34.492842 5.111439l-36.342458-14.996887c-11.360142-3.549263-20.733197-16.246628-20.733197-28.219144v-25.969611a21.882959 21.882959 0 0 0-21.757984-21.757984h-43.353503a21.857964 21.857964 0 0 0-21.782979 21.757984v26.044595c0 11.960018-9.310568 24.657383-20.733198 28.219144l-36.37995 14.996888c-10.585303 5.661325-26.06959 3.386797-34.492841-5.11144l-18.521157-18.458669a21.757985 21.757985 0 0 0-30.718624 0l-30.706128 30.643641a21.820472 21.820472 0 0 0 0 30.743619l18.458669 18.45867c8.485739 8.448247 10.747769 23.932533 5.086445 34.492841l-14.996888 36.404945c-3.586756 11.385137-16.246628 20.758192-28.181651 20.758192h-26.044595a21.757985 21.757985 0 0 0-21.757985 21.757985v43.440984a21.820472 21.820472 0 0 0 21.757985 21.757985h26.044595a31.36849 31.36849 0 0 1 28.119164 20.770689l14.996888 36.37995c5.63633 10.522816 3.361802 26.107082-5.086445 34.517837l-18.496161 18.458669a21.920451 21.920451 0 0 0 0 30.781112l30.743619 30.781112a21.757985 21.757985 0 0 0 30.718625 0l18.521157-18.521156c8.410755-8.410755 23.932533-10.747769 34.392862-4.998963l36.504924 14.996888c11.385137 3.586756 20.733197 16.246628 20.733197 28.181651v25.982108a21.782979 21.782979 0 0 0 21.78298 21.757985h43.390995a21.857964 21.857964 0 0 0 21.882958-21.907954v-25.982108c0-11.935023 9.34806-24.594896 20.733197-28.181651l36.404945-14.996888c10.522816-5.68632 26.06959-3.386797 34.517837 4.998963l18.321198 18.633633a21.820472 21.820472 0 0 0 30.743619 0l30.781112-30.768615a21.857964 21.857964 0 0 0 0-30.781112l-18.521156-18.458669c-8.410755-8.410755-10.747769-23.99502-5.086444-34.517837l14.996887-36.37995c3.586756-11.385137 16.246628-20.770689 28.219144-20.770689h26.044595a21.757985 21.757985 0 0 0 21.720492-21.695497V719.725634a21.782979 21.782979 0 0 0-21.695497-21.782979zM741.471121 893.064661a151.706016 151.706016 0 1 1 151.718514-151.718514 151.718514 151.718514 0 0 1-151.718514 151.718514z m0 0" fill="#d5d5d5" p-id="5843"></path></svg>