<?xml version="1.0" standalone="no"?><!DOCTYPE svg PUBLIC "-//W3C//DTD SVG 1.1//EN" "http://www.w3.org/Graphics/SVG/1.1/DTD/svg11.dtd"><svg t="1543482332653" class="icon" style="" viewBox="0 0 1024 1024" version="1.1" xmlns="http://www.w3.org/2000/svg" p-id="5526" xmlns:xlink="http://www.w3.org/1999/xlink" width="200" height="200"><defs><style type="text/css"></style></defs><path d="M875.8 612.8H824v50.9c0 28.1-23.2 50.9-51.9 50.9H441.5L234.1 918.1c-17.9 0-32.4-14.2-32.4-31.8V714.6h-51.9c-28.6 0-51.9-22.8-51.9-50.9V256.6c0-28.1 23.2-50.9 51.9-50.9h51.9v-50.9c0-28.1 23.2-50.9 51.8-50.9h622.2c28.6 0 51.9 22.8 51.9 50.9v407.1c0.1 28.1-23.2 50.9-51.8 50.9zM149.9 256.6v407.1h103.7v152.7l155.6-152.7h363V256.6H149.9z m725.9-50.8v-50.9H253.6v50.9h518.5c28.6 0 51.9 22.8 51.9 50.9V562h51.8V205.8zM668.4 460.2c0 28.1-23.2 50.9-51.9 50.9-28.6 0-51.8-22.8-51.8-50.9 0-28.1 23.2-50.9 51.8-50.9 28.7 0 51.9 22.8 51.9 50.9zM461 511.1c-28.6 0-51.8-22.8-51.8-50.9 0-28.1 23.2-50.9 51.8-50.9 28.6 0 51.9 22.8 51.9 50.9-0.1 28.1-23.3 50.9-51.9 50.9z m-155.6 0c-28.6 0-51.9-22.8-51.9-50.9 0-28.1 23.2-50.9 51.9-50.9s51.8 22.8 51.8 50.9c0.1 28.1-23.1 50.9-51.8 50.9z" p-id="5527" fill="#d5d5d5"></path></svg>