<?xml version="1.0" standalone="no"?><!DOCTYPE svg PUBLIC "-//W3C//DTD SVG 1.1//EN" "http://www.w3.org/Graphics/SVG/1.1/DTD/svg11.dtd"><svg t="1543562197680" class="icon" style="" viewBox="0 0 1024 1024" version="1.1" xmlns="http://www.w3.org/2000/svg" p-id="9490" xmlns:xlink="http://www.w3.org/1999/xlink" width="200" height="200"><defs><style type="text/css"></style></defs><path d="M483.555556 85.333333c-142.222222 0-256 113.777778-256 256 0 93.866667 51.2 176.355556 128 221.866667C199.111111 617.244444 85.333333 765.155556 85.333333 938.666667c0 17.066667 11.377778 28.444444 28.444445 28.444444s28.444444-11.377778 28.444444-28.444444c0-187.733333 153.6-341.333333 341.333334-341.333334 142.222222 0 256-113.777778 256-256s-113.777778-256-256-256z m0 455.111111c-110.933333 0-199.111111-88.177778-199.111112-199.111111s88.177778-199.111111 199.111112-199.111111 199.111111 88.177778 199.111111 199.111111-88.177778 199.111111-199.111111 199.111111zM913.066667 654.222222c-42.666667-45.511111-113.777778-51.2-159.288889-8.533333l-17.066667 17.066667-17.066667-17.066667c-45.511111-42.666667-119.466667-36.977778-159.288888 8.533333-42.666667 45.511111-36.977778 119.466667 8.533333 159.288889l170.666667 150.755556 170.666666-150.755556c42.666667-39.822222 45.511111-113.777778 2.844445-159.288889zM824.888889 810.666667h-56.888889v56.888889h-56.888889v-56.888889h-56.888889v-56.888889h56.888889v-56.888889h56.888889v56.888889h56.888889v56.888889z" p-id="9491" fill="#4f4f4f"></path></svg>