<?xml version="1.0" standalone="no"?><!DOCTYPE svg PUBLIC "-//W3C//DTD SVG 1.1//EN" "http://www.w3.org/Graphics/SVG/1.1/DTD/svg11.dtd"><svg t="1543228828485" class="icon" style="" viewBox="0 0 1024 1024" version="1.1" xmlns="http://www.w3.org/2000/svg" p-id="2017" xmlns:xlink="http://www.w3.org/1999/xlink" width="128" height="128"><defs><style type="text/css"></style></defs><path d="M94.2245 952.3481c-7.635911 0-14.986319-3.123131-20.304442-8.755408-6.42227-6.79066-9.013281-16.349363-6.913457-25.457812l56.398498-244.494457c1.172709-5.058203 3.736091-9.708106 7.391341-13.390985l502.773871-506.251066c9.503445-8.998955 89.165786-82.483596 155.272389-82.483596 21.217231 0 39.898709 7.410783 54.012148 21.436218l93.54349 92.894713c65.411779 64.955384-38.658462 183.493128-60.188824 206.599382L372.207675 899.972219c-4.091178 4.117784-9.380648 6.872524-15.108093 7.840572l-258.18527 44.140313C97.35991 952.225303 95.792205 952.3481 94.2245 952.3481zM176.039877 693.960215 130.863978 889.827161l208.017684-35.56296 497.087359-500.530784c37.744649-40.648792 79.785138-109.673865 61.07603-128.260176l-93.542466-92.888574c-2.441609-2.427282-6.313799-5.215792-14.658861-5.215792-33.217543 0-88.961124 40.860617-116.288516 66.61928L176.039877 693.960215z" p-id="2018" fill="#2aa515"></path><path d="M861.932346 392.957767c-11.659551 0-22.540366-7.356548-26.481118-19.016099-0.096191-0.314155-17.018605-47.337121-75.816756-106.129132-58.662051-58.669214-104.547101-74.902944-105.024985-75.05951-14.495132-4.990664-22.363334-20.794605-17.454534-35.344996 4.882194-14.528901 20.509103-22.445198 35.099403-17.652032 2.332115 0.77055 57.884338 19.574824 126.869502 88.566128 68.888973 68.896136 88.469937 125.410268 89.274256 127.783315 4.923126 14.617929-2.930749 30.455639-17.548678 35.385928C867.891058 392.487046 864.877421 392.957767 861.932346 392.957767z" p-id="2019" fill="#2aa515"></path><path d="M370.571409 888.041492c-11.659551 0-22.540366-7.350408-26.467815-19.023262-0.122797-0.299829-17.031908-47.329958-75.830059-106.114806-58.662051-58.676377-104.548124-74.90192-105.010659-75.05337-14.509459-4.990664-22.363334-20.794605-17.48114-35.343973 4.895497-14.536065 20.550035-22.458501 35.112706-17.659195 2.332115 0.763386 57.898665 19.567661 126.869502 88.566128 68.902276 68.888973 88.470961 125.396965 89.261976 127.768989 4.936429 14.617929-2.918469 30.463826-17.535375 35.400255C376.516818 887.563608 373.516484 888.041492 370.571409 888.041492z" p-id="2020" fill="#2aa515"></path></svg>