<?xml version="1.0" standalone="no"?><!DOCTYPE svg PUBLIC "-//W3C//DTD SVG 1.1//EN" "http://www.w3.org/Graphics/SVG/1.1/DTD/svg11.dtd"><svg t="1543482309969" class="icon" style="" viewBox="0 0 1024 1024" version="1.1" xmlns="http://www.w3.org/2000/svg" p-id="4748" xmlns:xlink="http://www.w3.org/1999/xlink" width="200" height="200"><defs><style type="text/css"></style></defs><path d="M272.384 284.16c0-95.232 78.848-174.08 174.08-174.08s174.08 78.848 174.08 174.08-78.848 174.08-174.08 174.08-174.08-78.848-174.08-174.08zM161.28 903.68c-29.696 0-52.224-23.04-52.224-52.224 0-174.08 134.656-317.952 305.152-334.336h35.84c39.424-3.072 95.232-13.312 124.416-39.424l13.312-9.728c55.808-46.08 88.576-111.616 88.576-183.808 0-128-104.96-232.96-236.032-232.96-121.344 0-226.304 104.96-226.304 232.96 0 72.192 32.768 137.728 88.576 183.808l16.384 9.728-16.384 6.656c-151.04 58.88-252.416 203.264-252.416 367.104 0 62.464 49.152 111.616 111.616 111.616h298.496c9.728 0 26.112-9.728 26.112-29.696 0-23.04-16.384-29.696-26.112-29.696H161.28z m757.248-131.072c-49.152 6.656-85.504 46.08-85.504 98.304 0 9.728 3.072 23.04 6.656 29.696l-42.496 23.04-16.384-16.384c-19.456-13.312-35.84-19.456-55.808-19.456-16.384 0-35.84 6.656-55.808 19.456-6.656 6.656-13.312 9.728-16.384 16.384l-39.424-23.04c3.072-6.656 6.656-19.456 6.656-29.696 0-49.152-35.84-91.648-85.504-98.304 0-6.656-3.072-19.456-3.072-32.768 0-9.728 3.072-23.04 3.072-32.768 49.152-6.656 85.504-46.08 85.504-98.304 0-9.728-3.072-23.04-6.656-29.696l42.496-23.04c3.072 3.072 9.728 9.728 16.384 13.312 19.456 13.312 35.84 19.456 52.224 19.456s32.768-6.656 52.224-19.456c6.656-6.656 13.312-9.728 16.384-13.312l42.496 23.04c-3.072 6.656-6.656 19.456-6.656 29.696 0 49.152 35.84 91.648 85.504 98.304 0 6.656 3.072 19.456 3.072 32.768 4.608 9.728 1.024 23.04 1.024 32.768z m46.08-81.92c-3.072-16.384-16.384-29.696-29.696-29.696h-3.072c-29.696 0-52.224-23.04-52.224-52.224 0-6.656 3.072-16.384 3.072-19.456 6.656-16.384 0-35.84-13.312-46.08l-58.88-32.768h-16.384c-9.728 0-23.04 3.072-29.696 13.312-6.656 6.656-26.112 23.04-39.424 23.04-13.312 0-32.768-16.384-42.496-23.04-6.656-6.656-16.384-13.312-29.696-13.312-6.656 0-9.728 0-13.312 3.072l-62.464 32.768c-13.312 9.728-19.456 29.696-13.312 46.08 0 0 3.072 9.728 3.072 19.456 0 29.696-23.04 52.224-52.224 52.224h-3.072c-13.312 0-26.112 13.312-29.696 29.696 0 3.072-6.656 26.112-6.656 49.152 0 19.456 3.072 46.08 6.656 49.152 3.072 16.384 16.384 29.696 29.696 29.696h3.072c29.696 0 52.224 23.04 52.224 52.224 0 6.656-3.072 16.384-3.072 19.456-6.656 16.384 0 35.84 13.312 46.08l58.88 32.768c6.656-3.072 9.728-3.072 16.384-3.072 9.728 0 23.04-3.072 29.696-13.312 6.656-6.656 26.112-26.112 42.496-26.112 13.312 0 35.84 16.384 42.496 26.112 6.656 6.656 16.384 13.312 29.696 13.312 6.656 0 9.728 0 16.384-3.072l58.88-32.768c13.312-9.728 19.456-29.696 13.312-46.08 0 0-3.072-9.728-3.072-19.456 0-29.696 23.04-52.224 52.224-52.224h3.072c13.312 0 26.112-13.312 29.696-29.696 0 0 6.656-26.112 6.656-49.152-6.144-16.384-9.216-42.496-9.216-46.08z m-239.616 91.648c-23.04 0-42.496-19.456-42.496-42.496s19.456-42.496 42.496-42.496c23.04 0 42.496 19.456 42.496 42.496 0.512 23.04-19.456 42.496-42.496 42.496z m16.384-131.072c-62.464-13.312-118.272 42.496-104.96 108.032 6.656 35.84 35.84 65.536 72.192 72.192 62.464 13.312 118.272-42.496 104.96-104.96-6.144-38.912-35.84-68.608-72.192-75.264z" p-id="4749" fill="#d5d5d5"></path></svg>