<?xml version="1.0" standalone="no"?><!DOCTYPE svg PUBLIC "-//W3C//DTD SVG 1.1//EN" "http://www.w3.org/Graphics/SVG/1.1/DTD/svg11.dtd"><svg t="1543482252876" class="icon" style="" viewBox="0 0 1024 1024" version="1.1" xmlns="http://www.w3.org/2000/svg" p-id="3966" xmlns:xlink="http://www.w3.org/1999/xlink" width="200" height="200"><defs><style type="text/css"></style></defs><path d="M465.92 503.296a220.046222 220.046222 0 1 1 0-440.092444 220.046222 220.046222 0 0 1 0 440.092444m0-502.897778A282.794667 282.794667 0 0 0 183.011556 283.306667c0 105.813333 58.823111 197.063111 144.952888 245.532444-157.411556 56.661333-270.563556 205.937778-270.563555 382.862222 0 10.808889 2.332444 20.878222 3.185778 31.573334h0.682666a30.72 30.72 0 0 0 61.098667 0h0.967111c-0.910222-10.581333-3.128889-20.764444-3.128889-31.516445A345.543111 345.543111 0 0 1 465.863111 566.044444l31.459556-3.128888c141.084444-15.815111 251.278222-134.257778 251.278222-279.665778A282.794667 282.794667 0 0 0 465.976889 0.455111m431.388444 807.480889c-1.877333-0.512-3.697778-1.137778-5.688889-1.137778H543.687111a23.438222 23.438222 0 1 0 0 46.876445h294.513778l-79.246222 77.710222a22.641778 22.641778 0 0 0 0 32.312889 23.324444 23.324444 0 0 0 32.824889 0l118.727111-116.963556a23.04 23.04 0 0 0 0-32.654222 22.584889 22.584889 0 0 0-13.198223-6.144m-358.001777-72.817778a23.324444 23.324444 0 0 0 5.973333 0.796445h349.866667a22.926222 22.926222 0 1 0 0-45.681778H599.04l79.644444-78.904889a23.438222 23.438222 0 0 0-16.497777-40.049778 23.267556 23.267556 0 0 0-16.440889 6.826667l-119.409778 118.044444a23.210667 23.210667 0 0 0 0 32.881778 22.528 22.528 0 0 0 12.970667 6.087111" fill="#d5d5d5" p-id="3967"></path></svg>