<?xml version="1.0" standalone="no"?><!DOCTYPE svg PUBLIC "-//W3C//DTD SVG 1.1//EN" "http://www.w3.org/Graphics/SVG/1.1/DTD/svg11.dtd"><svg t="1543562320386" class="icon" style="" viewBox="0 0 1024 1024" version="1.1" xmlns="http://www.w3.org/2000/svg" p-id="12876" xmlns:xlink="http://www.w3.org/1999/xlink" width="200" height="200"><defs><style type="text/css"></style></defs><path d="M374.784 604.16v204.8h112.64V462.848c0-16.384-20.48-26.624-32.768-16.384l-172.032 120.832c-14.336 12.288-6.144 36.864 12.288 36.864h79.872z m274.432-184.32v-204.8h-112.64v346.112c0 16.384 20.48 26.624 32.768 16.384l172.032-120.832c14.336-12.288 6.144-36.864-12.288-36.864h-79.872z" p-id="12877" fill="#4f4f4f"></path><path d="M952.32 30.72h-880.64c-22.528 0-40.96 18.432-40.96 40.96v880.64c0 22.528 18.432 40.96 40.96 40.96h880.64c22.528 0 40.96-18.432 40.96-40.96v-880.64c0-22.528-18.432-40.96-40.96-40.96z m-43.008 841.728c0 20.48-16.384 36.864-36.864 36.864H151.552c-20.48 0-36.864-16.384-36.864-36.864V151.552c0-20.48 16.384-36.864 36.864-36.864h718.848c10.24 0 18.432 4.096 26.624 10.24 6.144 6.144 10.24 16.384 10.24 26.624v720.896z" p-id="12878" fill="#4f4f4f"></path></svg>